<svg id="Banner" xmlns="http://www.w3.org/2000/svg" width="343" height="296" viewBox="0 0 343 296">
  <defs>
    <style>
      .cls-1, .cls-5, .cls-7 {
        fill: #fff;
      }

      .cls-2, .cls-3, .cls-6 {
        fill: #1e1c24;
      }

      .cls-2 {
        font-size: 18px;
        font-family: Poppins-SemiBold, Poppins;
        font-weight: 600;
      }

      .cls-3 {
        font-size: 13px;
        font-family: Poppins-Regular, Poppins;
        opacity: 0.75;
      }

      .cls-4 {
        fill: #fd5353;
      }

      .cls-5 {
        stroke: #cbcbcb;
        stroke-miterlimit: 10;
      }

      .cls-6 {
        stroke: #1e1c24;
        font-family: Poppins-Light, Poppins;
        font-weight: 300;
      }

      .cls-6, .cls-7 {
        font-size: 14px;
        letter-spacing: 0.125em;
      }

      .cls-7 {
        font-family: Poppins-Medium, Poppins;
        font-weight: 500;
      }
    </style>
  </defs>
  <rect id="bg" class="cls-1" width="343" height="296" rx="10"/>
  <text id="Join_the_conversatio" data-name="Join the conversatio" class="cls-2" transform="translate(16 112)"><tspan x="15.784" y="19">Join the conversation on Slack</tspan></text>
  <text id="Stay_up_to_date_on_t" data-name="Stay up to date on t" class="cls-3" transform="translate(16 150)"><tspan x="5.142" y="14">Stay up to date on the latest news and special </tspan><tspan x="5.259" y="34">programs that only take place within the slack </tspan><tspan x="127.686" y="54">channel.</tspan></text>
  <path id="slack" class="cls-4" d="M24.393,56h0a5.017,5.017,0,0,1-4.679-3.248L18.042,47.56l-5.195,1.688a4.995,4.995,0,0,1-3.083-9.492l5.167-1.688L11.516,27.56,6.332,29.248a5,5,0,0,1-3.083-9.493L8.44,18.07,6.8,13.036a4.993,4.993,0,1,1,9.5-3.085l1.633,5.023,10.509-3.416L26.807,6.536A4.993,4.993,0,1,1,36.3,3.45l1.639,5.03,5.031-1.636a4.993,4.993,0,1,1,3.086,9.5l-5.03,1.635,3.415,10.508,5.009-1.635a4.984,4.984,0,1,1,3.1,9.475l-5.031,1.635,1.688,5.191a5,5,0,0,1-9.493,3.086L38.028,41.07,27.518,44.485l1.688,5.184A5,5,0,0,1,24.393,56ZM31.53,21.062,21.02,24.477l3.416,10.508,10.51-3.416Z" transform="translate(142 32)"/>
  <g id="btn" transform="translate(16 228)">
    <rect id="bg-2" data-name="bg" class="cls-5" width="150" height="44" rx="6"/>
    <text id="REMIND_LATER" data-name="REMIND LATER" class="cls-6" transform="translate(18 28)"><tspan x="0" y="0">REMIND LATER</tspan></text>
  </g>
  <g id="btn-2" data-name="btn" transform="translate(177 228)">
    <rect id="bg-3" data-name="bg" class="cls-4" width="150" height="44" rx="6"/>
    <text id="JOIN_NOW" data-name="JOIN NOW" class="cls-7" transform="translate(33 28)"><tspan x="0" y="0">JOIN NOW</tspan></text>
  </g>
</svg>
