<svg id="Компонент_1_1" data-name="Компонент 1 – 1" xmlns="http://www.w3.org/2000/svg" width="46.011" height="45.741" viewBox="0 0 46.011 45.741">
  <defs>
    <style>
      .cls-1 {
        fill: #00c2bb;
        opacity: 0.62;
      }

      .cls-2 {
        fill: red;
      }

      .cls-2, .cls-3 {
        opacity: 0.55;
      }

      .cls-3 {
        fill: #e48900;
      }

      .cls-4 {
        fill: #0da165;
        opacity: 0.5;
      }
    </style>
  </defs>
  <path id="Контур_361" data-name="Контур 361" class="cls-1" d="M5.38,64.538a3.8,3.8,0,0,1-3.707-2.607q-.03-.09-.056-.182A3.986,3.986,0,0,1,4.2,56.88L36.77,45.967a4.415,4.415,0,0,1,1.19-.174,3.9,3.9,0,0,1,3.806,2.662l.049.157a3.907,3.907,0,0,1-2.719,4.64L6.7,64.313a4.215,4.215,0,0,1-1.323.225Z" transform="translate(-1.464 -40.325)"/>
  <path id="Контур_362" data-name="Контур 362" class="cls-2" d="M22.719,115.467A3.8,3.8,0,0,1,19,112.9q-.03-.09-.056-.181A4.014,4.014,0,0,1,21.52,107.8L54.095,96.786a4.2,4.2,0,0,1,1.293-.217,3.936,3.936,0,0,1,3.8,2.639l.05.166a4.122,4.122,0,0,1-.5,3.313,5.462,5.462,0,0,1-1.937,1.364l-32.7,11.18a4.485,4.485,0,0,1-1.384.237Z" transform="translate(-13.374 -75.235)"/>
  <path id="Контур_363" data-name="Контур 363" class="cls-3" d="M85.342,68.6a4,4,0,0,1-3.829-2.726L70.641,33.578l-.054-.181a4,4,0,0,1,7.646-2.374L89.1,63.312l.032.1a4,4,0,0,1-3.793,5.18Z" transform="translate(-48.881 -28.294)"/>
  <path id="Контур_364" data-name="Контур 364" class="cls-4" d="M33.63,86.009A4,4,0,0,1,29.8,83.281L18.931,50.99a4,4,0,0,1,2.516-5.072,4.05,4.05,0,0,1,1.245-.209,4,4,0,0,1,3.83,2.726L37.391,80.727a4,4,0,0,1-3.762,5.281h0Z" transform="translate(-13.328 -40.267)"/>
</svg>
