               
<svg display="none" xmlns="http://www.w3.org/2000/svg" >

  <symbol id="cartoon-network" viewBox="0 0 97 58.831" >
    <g transform="translate(-61.795 -68.999)">
            <path id="Контур_338" data-name="Контур 338" d="M61.795,118.136h49.15V69H61.795ZM87.706,71.61a21.748,21.748,0,0,1,19.109,11.1h0L94.608,89.7a7.85,7.85,0,0,0-6.708-3.99,7.891,7.891,0,1,0-.22,15.781,8.052,8.052,0,0,0,6.93-4.019l12.206,7A21.96,21.96,0,1,1,87.706,71.61Z"/>
            <path id="Контур_339" data-name="Контур 339" d="M226.261,103.632l14.051,17.536h14.025V79.056H240.312V96.621L226.261,79.056H212.225l0,42.113h14.04Z" transform="translate(-97.75 -6.535)"/>
            <path id="Контур_340" data-name="Контур 340" d="M69.426,221.026a1.33,1.33,0,0,1,1.244.6l1.616-.925a3.243,3.243,0,0,0-1.841-1.434h0a3.129,3.129,0,1,0-.667,6.128,3.286,3.286,0,0,0,2.508-1.567l-1.616-.934a1.327,1.327,0,0,1-1.152.61,1.26,1.26,0,0,1-1.144-1.581A1.244,1.244,0,0,1,69.426,221.026Z" transform="translate(-3.029 -97.567)"/>
            <path id="Контур_341" data-name="Контур 341" d="M146.362,221.151a3.042,3.042,0,1,0,.007.014A.083.083,0,0,0,146.362,221.151Zm-1.861,2.633a1.33,1.33,0,0,1-1.335-2.3,1.317,1.317,0,0,1,.665-.181,1.337,1.337,0,0,1,1.154.664l.005.008A1.332,1.332,0,0,1,144.5,223.784Z" transform="translate(-51.405 -97.929)"/>
            <path id="Контур_342" data-name="Контур 342" d="M289.75,221.158a2.828,2.828,0,1,0,0,.008Zm-1.245,1.82a1.33,1.33,0,1,1-.135-1.01l0,.006A1.319,1.319,0,0,1,288.5,222.978Z" transform="translate(-144.58 -97.932)"/>
            <path id="Контур_343" data-name="Контур 343" d="M85.341,219.5l-1.877,6h2.109l.308-1.006H87.8l.3,1.006h2.109l-1.877-6Zm.962,3.518.537-1.862.536,1.862Z" transform="translate(-14.081 -97.8)"/>
            <path id="Контур_344" data-name="Контур 344" d="M110.212,221.542a2.131,2.131,0,0,0-2.028-2.039H104.47v6h1.988V223.75h.648L108,225.5h2.211l-1.158-1.968A2.182,2.182,0,0,0,110.212,221.542Zm-2.434.715-1.321,0v-1.007h1.322a.5.5,0,0,1,.454.466A.511.511,0,0,1,107.778,222.257Z" transform="translate(-27.731 -97.8)"/>
            <path id="Контур_345" data-name="Контур 345" d="M122.435,221.254h1.883V225.5h2.249v-4.248h1.881V219.5h-6.013Z" transform="translate(-39.405 -97.8)"/>
            <path id="Контур_346" data-name="Контур 346" d="M183.324,222l-2.032-2.5h-1.983v6h1.983V223l2.032,2.5h1.985v-6h-1.985Z" transform="translate(-76.362 -97.8)"/>
            <path id="Контур_347" data-name="Контур 347" d="M212.049,222l-2.032-2.5h-1.983v6h1.983V223l2.032,2.5h1.985v-6h-1.985Z" transform="translate(-95.029 -97.8)"/>
            <path id="Контур_348" data-name="Контур 348" d="M227.631,225.5h5.24v-1.6h-3.255v-.631h2.741v-1.4h-2.741v-.614h3.255V219.5h-5.24Z" transform="translate(-107.763 -97.8)"/>
            <path id="Контур_349" data-name="Контур 349" d="M244.489,221.254h1.883V225.5h2.248v-4.248H250.5V219.5h-6.013Z" transform="translate(-118.718 -97.8)"/>
            <path id="Контур_350" data-name="Контур 350" d="M267.621,222.127l-1.012-2.411-.994,2.417c0-.011-.506-2.632-.506-2.632h-2.017c.022.136,1.162,6,1.162,6h1.635l.721-1.62.711,1.62h1.663l1.143-6h-2Z" transform="translate(-130.806 -97.799)"/>
            <path id="Контур_351" data-name="Контур 351" d="M308.993,221.542a2.131,2.131,0,0,0-2.028-2.039h-3.714v6h1.987l0-1.754h.644l.891,1.754h2.211l-1.159-1.968A2.183,2.183,0,0,0,308.993,221.542Zm-2.434.715-1.321,0v-1.007h1.323a.5.5,0,0,1,.454.466A.512.512,0,0,1,306.558,222.257Z" transform="translate(-156.903 -97.8)"/>
            <path id="Контур_352" data-name="Контур 352" d="M327.543,219.5h-2.559l-1.5,1.944V219.5H321.48v6h2.008V223.27l1.5,2.233h2.559l-2.322-3.14Z" transform="translate(-168.748 -97.8)"/>
            <path id="Контур_353" data-name="Контур 353" d="M165.736,221.153a2.956,2.956,0,1,0,.007.012Zm-1.861,2.633a1.33,1.33,0,1,1-1.334-2.3,1.314,1.314,0,0,1,.665-.181,1.337,1.337,0,0,1,1.153.664l.005.008A1.334,1.334,0,0,1,163.875,223.786Z" transform="translate(-63.995 -97.932)"/>
        </g>
  </symbol>

    <symbol id="booking-logo" viewBox="0 0 262.295 43.693">
      <g  transform="translate(-9.3 -118.7)">
      <path d="M120.217,122.691a3.991,3.991,0,1,1-3.991-3.991A3.994,3.994,0,0,1,120.217,122.691Zm-60.826,18.3c0,7.225-5.3,12.454-12.592,12.454s-12.523-5.229-12.523-12.454A12.092,12.092,0,0,1,46.8,128.539C54.094,128.539,59.392,133.769,59.392,140.994Zm-6.743,0c0-3.922-2.408-6.606-5.849-6.606s-5.849,2.752-5.849,6.606c0,3.922,2.408,6.606,5.849,6.606C50.309,147.6,52.649,144.916,52.649,140.994Zm51.881.619h0a4.959,4.959,0,0,0-.963-1.307l-.206-.206.206-.206a9.83,9.83,0,0,0,1.032-1.239l6.4-9.564h-7.775l-4.817,7.431a1.858,1.858,0,0,1-1.651.619h-1.1V123.035c0-2.821-1.789-3.234-3.647-3.234H88.773v33.3h6.881v-9.977h.619c.757,0,1.307.069,1.583.55l3.784,7.156c1.032,1.927,2.133,2.271,4.128,2.271h5.3l-3.922-6.537Zm33.44-13.142h0a9.437,9.437,0,0,0-7.018,2.89l-.413.413-.138-.55c-.344-1.445-1.583-2.2-3.509-2.2h-3.1v24.014h6.881V141.957a9.457,9.457,0,0,1,.413-2.89,5.605,5.605,0,0,1,5.573-4.2c2.133,0,2.959,1.1,2.959,4.06v10.459c0,2.477,1.17,3.647,3.647,3.647H146.5V137.76C146.571,131.7,143.612,128.471,137.97,128.471Zm-21.674.55h-3.234V147.6h0v5.436H119.8V132.668C119.873,130.191,118.7,129.021,116.3,129.021Zm-30,11.972c0,7.225-5.3,12.454-12.592,12.454s-12.523-5.229-12.523-12.454A12.092,12.092,0,0,1,73.7,128.539C81,128.539,86.3,133.769,86.3,140.994Zm-6.743,0c0-3.922-2.408-6.606-5.849-6.606s-5.849,2.752-5.849,6.606c0,3.922,2.408,6.606,5.849,6.606C77.213,147.6,79.552,144.916,79.552,140.994Zm92.89-12.041v22.018c0,8.395-6.812,11.422-12.661,11.422a18.463,18.463,0,0,1-8.394-2.064l-.482-.275.757-2,.55-1.376a2.061,2.061,0,0,1,2.89-1.376,13.49,13.49,0,0,0,4.61.826c3.784,0,5.849-1.789,5.849-4.954v-.688l-.55.413a8.492,8.492,0,0,1-5.3,1.514c-6.4,0-10.872-5.023-10.872-12.179s4.335-11.972,10.734-11.972a9.333,9.333,0,0,1,6.33,2.064l.344.275.206-.344a2.934,2.934,0,0,1,2.821-1.445h3.165ZM165.7,140.443c0-5.367-2.89-5.986-5.092-5.986-4.4,0-4.748,4.4-4.748,5.78,0,3.028,1.307,6.33,5.092,6.33C163.153,146.5,165.7,145.466,165.7,140.443ZM32.282,143.264c0,5.917-4.472,9.7-11.491,9.7H9.3V123.31a3.483,3.483,0,0,1,3.372-3.44h7.982c6.261,0,10.321,3.372,10.321,8.6a7.971,7.971,0,0,1-2.752,6.261l-.894.757,1.032.55h0A7.843,7.843,0,0,1,32.282,143.264ZM15.7,129.3h0v3.853h5.023a3.751,3.751,0,0,0,3.853-4.06,3.584,3.584,0,0,0-3.922-3.922H17.832c-1.445.069-2.064.826-2.064,2.339V129.3Zm10.046,13.486a4.19,4.19,0,0,0-4.472-4.472H17.488c-1.239.138-1.789.894-1.789,2.339v6.674h5.573A4.175,4.175,0,0,0,25.745,142.783Z" transform="translate(0 0)"/>
      <path d="M258.282,153.749a3.991,3.991,0,1,1-3.991-3.991A3.994,3.994,0,0,1,258.282,153.749Zm50.023-8.326c0,7.225-5.3,12.454-12.592,12.454s-12.523-5.229-12.523-12.454a12.092,12.092,0,0,1,12.523-12.454C303.006,132.969,308.3,138.2,308.3,145.423Zm-6.743,0c0-3.922-2.408-6.605-5.849-6.605s-5.849,2.752-5.849,6.605c0,3.922,2.408,6.606,5.849,6.606C299.222,152.028,301.561,149.345,301.561,145.423Zm37.294-12.454Zm0,0a9.425,9.425,0,0,0-7.362,3.578l-.482.619-.413-.688c-1.238-2.339-3.44-3.509-6.468-3.509a8.957,8.957,0,0,0-6.33,2.821l-.619.688-.275-.895c-.344-1.307-1.514-2.064-3.372-2.064h-2.89v23.945h6.537v-10.6a13.727,13.727,0,0,1,.344-2.821c.619-2.546,2.339-5.3,5.229-5.023,1.789.138,2.615,1.514,2.615,4.2V157.4h6.606V146.8a11.885,11.885,0,0,1,.344-2.89c.55-2.408,2.339-4.954,5.092-4.954,2,0,2.752,1.17,2.752,4.2v10.665c0,2.408,1.1,3.509,3.509,3.509h3.1V142.051C346.837,136.065,344.153,132.969,338.855,132.969Zm-59.518,16.17h0s-2.821,2.959-6.537,2.959c-3.372,0-6.812-2.064-6.812-6.674,0-3.991,2.615-6.812,6.4-6.812,1.239,0,2.615.413,2.821,1.17v.138a2.483,2.483,0,0,0,2.339,1.789h3.578v-3.165c0-4.128-5.229-5.642-8.807-5.642-7.569,0-13.073,5.3-13.073,12.523s5.436,12.523,12.936,12.523a13.379,13.379,0,0,0,10.046-4.335l.206-.206-2.821-4.679Z" transform="translate(-75.174 -4.429)"/>
      </g>
  </symbol>

  <symbol id="dropbox-title" viewBox="0 0 165.674 38.374">
    <path d="M114.5,122.757h10.752c6.891,0,12.534,3.98,12.534,13.009v1.9c0,9.148-5.287,13.247-12.3,13.247H114.5Zm6,5.109v17.88h4.574c3.921,0,6.534-2.554,6.534-8.2v-1.485c0-5.643-2.733-8.2-6.713-8.2Zm20.435.238h4.812l.772,5.287c.891-3.624,3.267-5.524,7.485-5.524h1.485v6.059h-2.495c-4.871,0-6.059,1.723-6.059,6.534v10.455h-5.94v-22.87h-.059Zm15.8,11.94v-.653c0-7.663,4.871-11.821,11.524-11.821,6.772,0,11.524,4.158,11.524,11.821v.653c0,7.485-4.574,11.524-11.524,11.524C160.894,151.508,156.735,147.528,156.735,140.043Zm16.989-.119v-.594c0-4.218-2.139-6.772-5.524-6.772-3.327,0-5.524,2.317-5.524,6.772v.594c0,4.1,2.138,6.415,5.524,6.415S173.725,144.083,173.725,139.925Zm9.207-11.821h4.93l.594,4.336a7.642,7.642,0,0,1,7.485-4.871c5.821,0,9.623,4.158,9.623,11.881v.653c0,7.485-4.218,11.465-9.623,11.465-3.624,0-6.059-1.6-7.307-4.218v11.524h-5.821l.119-30.771Zm16.633,11.821v-.475c0-4.515-2.317-6.772-5.465-6.772-3.327,0-5.524,2.554-5.524,6.772v.416c0,4.039,2.138,6.594,5.465,6.594C197.426,146.4,199.565,144.2,199.565,139.925Zm14.791,6.831-.475,4.158h-5.109V120.5h5.821v11.7c1.247-2.97,3.8-4.574,7.425-4.574,5.465.059,9.5,3.8,9.5,11.405v.713c0,7.544-3.8,11.881-9.623,11.881C218.039,151.508,215.544,149.726,214.356,146.756Zm11.049-7.069v-.594c0-4.158-2.257-6.534-5.465-6.534-3.267,0-5.524,2.614-5.524,6.594v.475c0,4.218,2.2,6.713,5.465,6.713C223.326,146.4,225.405,144.2,225.405,139.687Zm8.613.356v-.653c0-7.663,4.871-11.821,11.524-11.821,6.772,0,11.524,4.158,11.524,11.821v.653c0,7.485-4.693,11.524-11.524,11.524C238.177,151.508,234.018,147.528,234.018,140.043Zm17.049-.119v-.594c0-4.218-2.139-6.772-5.524-6.772-3.327,0-5.524,2.317-5.524,6.772v.594c0,4.1,2.138,6.415,5.524,6.415S251.067,144.083,251.067,139.925Zm13.781-.832-8.019-10.99h6.891l4.574,6.891,4.693-6.891h6.772l-8.138,10.871,8.554,11.881h-6.712l-5.227-7.544-5.109,7.544h-6.95Z" transform="translate(-114.5 -120.5)"/>
  </symbol>

  <symbol id="dropbox-logo" viewBox="0 0 53.166 45.146"> 
    <path d="M34.112,118.495l-13.306,8.495,13.306,8.495-13.306,8.495L7.5,135.424l13.306-8.495L7.5,118.495,20.806,110ZM20.747,146.652l13.306-8.495,13.306,8.495-13.306,8.495Zm13.366-11.227,13.306-8.495-13.306-8.435L47.359,110l13.306,8.495-13.306,8.495,13.306,8.495-13.306,8.495Z" transform="translate(-7.5 -110)"/>
  </symbol>

  <symbol id="toshiba-logo" viewBox="0 0 207.103 31.556">
    <g id="Toshiba_logo" transform="translate(-17.194 -118.099)">
    <path id="a" class="cls-1" d="M359.49,149.529l-9.23-30.46H337.549l-9.228,30.46h8.947l1.63-5.639h10.009l1.638,5.639h8.945Zm-18.655-12.413,3.045-10.523h.051l3.045,10.523Z" transform="translate(-135.193 -0.421)"/>
    <path id="o" class="cls-1" d="M85.067,118.1c-9.185,0-13.622,1.616-14.248,9.906-.153,1.972-.184,4-.184,5.868s.031,3.9.184,5.874c.626,8.288,5.064,9.906,14.248,9.906s13.624-1.618,14.254-9.906c.15-1.972.179-4,.179-5.874s-.029-3.9-.179-5.868C98.691,119.715,94.252,118.1,85.067,118.1Zm5.7,19.176c-.23,4.7-2.086,5.251-5.7,5.251s-5.465-.55-5.7-5.251c-.036-.732-.078-1.722-.078-3.4s.041-2.662.078-3.4c.232-4.7,2.088-5.249,5.7-5.249s5.467.548,5.7,5.249c.036.733.081,1.722.081,3.4S90.8,136.542,90.765,137.275Z" transform="translate(-23.222 0)"/>
    <path id="t" class="cls-1" d="M17.194,126.686H26.3v22.865h9.108V126.686h9.106v-7.593H17.194Z" transform="translate(0 -0.432)"/>
    <rect id="i" class="cls-1" width="8.644" height="30.46" transform="translate(148.305 118.647)"/>
    <path id="h" class="cls-1" d="M206.217,130.189h-9.986V119.068h-8.6v30.461h8.6V137.782h9.986v11.747h8.593V119.068h-8.593Z" transform="translate(-74.062 -0.421)"/>
    <path id="b" class="cls-1" d="M298.663,133.606h0c3.828-.978,4.95-3.266,4.95-6.571,0-6.694-4.211-7.968-10.2-7.968H277.894v30.46h16.288c7.5,0,10.022-3.231,10.022-8.2C304.2,137.863,303.411,134.807,298.663,133.606Zm-12.177-7.573h5.958a2.232,2.232,0,0,1,2.519,2.513A2.3,2.3,0,0,1,292.444,131h-5.958Zm5.958,16.527h-5.958v-5.544h5.958c2.409,0,2.91,1.054,2.91,2.77S294.413,142.56,292.444,142.56Z" transform="translate(-113.281 -0.421)"/>
    <path id="s" class="cls-1" d="M153.332,131.9c-2.144-1.264-8.158-1.457-11.209-1.652-2.222-.144-3.068-.962-3.068-2.919,0-2.566,2.443-2.661,4.556-2.661,1.744,0,2.955.159,3.8.912.329.334.732.84.748,2.634h8.173c0-3.518-.111-7.312-3.914-9.063-3.024-1.393-14.261-1.393-17.125,0-2.775,1.35-4.7,3.284-4.7,8.8,0,3.242.86,5.64,2.516,6.87,2.431,1.806,4.792,1.991,11.321,2.337,2.633.14,4.06.656,4.06,2.92,0,2.869-2.553,2.869-4.882,2.869-2.421,0-3.15-.2-3.966-.817-.718-.546-.907-1.533-.914-3.011h-8.194c0,4.2.081,7.638,4.041,9.365,3.539,1.55,14.425,1.55,17.683.111,2.825-1.248,4.853-2.912,4.853-8.585C157.117,136.08,156.338,133.675,153.332,131.9Z" transform="translate(-49.251 -0.002)"/>
    </g>
  </symbol>

  <symbol id="slack-title" viewBox="0 0 100.677 35.951">
    <path id="Контур_360" data-name="Контур 360" class="cls-1" d="M177.755,43.737c0-4.63,3.376-7.864,9.511-7.864a15.267,15.267,0,0,1,8.466,2.366,1.081,1.081,0,0,1,.407,1.327c-.326.812-.923,2.034-1.351,2.828a.924.924,0,0,1-1.212.236,15.377,15.377,0,0,0-4.9-1.8,10.429,10.429,0,0,0-1.358-.059c-1.569.035-2.879.58-3.341,1.776a2.106,2.106,0,0,0-.149.711c-.043,1.577,2.152,2.147,4.811,2.6,4.943.847,8.683,2.3,8.683,7.384,0,4.321-3.434,8.225-10.162,8.106a14.736,14.736,0,0,1-9.268-3.043,1.387,1.387,0,0,1-.355-1.489,11.176,11.176,0,0,1,1.58-2.788,1.226,1.226,0,0,1,1.453-.212,13.153,13.153,0,0,0,6.314,2.34c.208.007.414.008.617,0,2.372-.057,3.807-.957,3.777-2.472-.026-1.335-1.906-2.114-4.9-2.679-4.776-.9-8.618-2.474-8.618-7.278m43.389,6.593c-3.368.044-6.456.965-6.545,3.6,0,2.089,1.693,3.115,4.071,2.98a6.078,6.078,0,0,0,4.787-2.522,9.787,9.787,0,0,0,.309-3.085c0-.166-.332-.479-.475-.539a5.439,5.439,0,0,0-2.148-.431M209.938,39.725a13.621,13.621,0,0,1,9.674-3.487c6.567.137,10.037,3.215,10.36,10.581.133,3.037-.088,11.509-.14,13.62-.008.3-.11.512-.518.52-1.081.043-3.58.026-4.728.011-.579-.028-.646-.316-.654-.617,0-.2-.022-.781-.034-1.257a.192.192,0,0,0-.3-.181,9.2,9.2,0,0,1-6.747,2.439c-4.078,0-8.143-2.4-8.131-7.15.013-4.865,3.462-7.265,7.252-7.831a14.736,14.736,0,0,1,7.234.783c.133.053.4-.024.405-.212a14.277,14.277,0,0,0-.141-2.361c-.3-1.427-1.494-2.575-3.995-2.884a7.694,7.694,0,0,0-1.552-.043c-1.988.156-4.38,1.706-5.37,2.286a.633.633,0,0,1-.716-.116,29.717,29.717,0,0,1-2.146-3.28.767.767,0,0,1,.25-.824h0Zm22.2,9.057C232.1,42,236.826,36.272,244.5,36.222c4.79-.031,8.271,2.141,8.884,3.165a.78.78,0,0,1-.026.684,23.808,23.808,0,0,1-2.16,3.448c-.311.4-.648.057-1.041-.2A10.217,10.217,0,0,0,244.97,41.7c-3.692,0-6.442,2.532-6.411,7.19.029,4.47,2.662,6.926,6.424,7.015a7.613,7.613,0,0,0,4.9-2.007c.322-.281.655-.14,1.023.147a29.464,29.464,0,0,1,2.331,2.661.765.765,0,0,1-.041,1.033,10.875,10.875,0,0,1-8.546,3.652c-8.335.058-12.47-5.8-12.508-12.612m39.787,12.306c.391-.029,4.566-.606,5.848-.9a.369.369,0,0,0,.253-.6c-.716-1.073-2.6-4.12-4.567-6.848-1.812-2.508-3.723-4.714-4.34-5.563a.4.4,0,0,1,.022-.569c1.175-1.15,6.091-5.97,7.94-7.96.716-.774.286-1.107-.322-1.288-1.174-.35-3.073-.786-4.153-1.014a1.471,1.471,0,0,0-1.4.347c-1.848,1.723-7.488,7.384-9.172,9.076-.3.305-.48.237-.481-.2-.014-3.262-.078-17.23-.195-19.527a.669.669,0,0,0-.579-.545c-1.059-.055-3.733-.071-4.787-.009a.748.748,0,0,0-.6.589c-.243,3.674.1,30.64.247,34.412a.508.508,0,0,0,.472.5c1.051.061,3.652.057,4.867.034.6,0,.671-.42.671-.42l.09-7.236a1.2,1.2,0,0,1,.161-.428c.428-.461,1.612-1.73,2.117-2.221a.281.281,0,0,1,.436.057c.6.809,2.311,3.44,3.9,5.79,1.457,2.159,2.817,4.074,2.912,4.21a.7.7,0,0,0,.669.319h0Zm-71.006-.025c.367.012,3.153.009,4.387.008a.612.612,0,0,0,.645-.584c.262-5.289.15-30.471-.016-34.447-.014-.344-.161-.473-.4-.5a21.378,21.378,0,0,0-5.035.144.388.388,0,0,0-.306.377c-.236,10.249-.077,33.879-.027,34.327a.681.681,0,0,0,.747.681h0Z" transform="translate(-177.433 -25.444)"/>
  </symbol>

  <symbol id="netflix-logo" viewBox="0 0 142.072 38.544">
    <g transform="translate(0 0.003)">
    <path data-name="Контур 359" class="cls-1" d="M121.279,36.091q2.968.288,5.929.611l4.356-10.756,4.141,11.748q3.187.4,6.365.837l-7.259-20.6L142.072,0h-6.15l-.064.088-3.923,9.687L128.492,0H122.42l6.269,17.79-7.409,18.3Zm-4.592-.421V0h-6.07v35.17q3.037.234,6.07.5m-45.6-1.994c1.639,0,3.275.012,4.909.026V20.6h7.292V15.015H76V5.586h8.4V0H69.907V33.679c.394,0,.789-.006,1.184,0m-18.846.341q3.033-.108,6.073-.182V5.587h5.673V0H46.571V5.587h5.674V34.016ZM5.823,37.777V16.525L13.01,36.919q3.315-.372,6.643-.7V0H13.829V22.012L6.074,0H0V38.541H.036q2.886-.4,5.786-.764m34.9-32.192V0H26.225V35.613q7.233-.624,14.481-1.047V28.974q-4.2.244-8.387.559V20.6h7.292V15.014H32.32V5.585ZM96.428,28.707V0h-6.1V34.036q7.274.267,14.494.739V29.18q-4.191-.271-8.4-.474"/>
   </g>
  </symbol>

  <symbol id="spotify-logo" viewBox="0 0 188.777 56.619">
    <path id="spotify-1" class="cls-1" d="M102.74,1369.15a28.31,28.31,0,1,0,28.309,28.309,28.31,28.31,0,0,0-28.309-28.309h0Zm12.983,40.83a1.764,1.764,0,0,1-2.426.587c-6.648-4.063-15.015-4.981-24.869-2.73a1.764,1.764,0,1,1-.785-3.439c10.784-2.466,20.034-1.4,27.5,3.155a1.764,1.764,0,0,1,.585,2.427h0Zm3.465-7.707a2.209,2.209,0,0,1-3.036.727c-7.608-4.677-19.209-6.031-28.209-3.3a2.207,2.207,0,1,1-1.283-4.223c10.281-3.119,23.062-1.608,31.8,3.762a2.206,2.206,0,0,1,.727,3.034h0Zm.3-8.027c-9.125-5.419-24.177-5.918-32.889-3.274a2.648,2.648,0,1,1-1.537-5.067c10-3.036,26.624-2.449,37.128,3.787a2.648,2.648,0,0,1-2.7,4.554h0Zm31.966,1.038c-4.888-1.166-5.758-1.984-5.758-3.7,0-1.624,1.529-2.717,3.8-2.717a11.111,11.111,0,0,1,6.681,2.538.32.32,0,0,0,.242.059.316.316,0,0,0,.211-.13l2.387-3.364a.321.321,0,0,0-.061-.435,14.441,14.441,0,0,0-9.387-3.252c-5.278,0-8.964,3.167-8.964,7.7,0,4.859,3.18,6.58,8.675,7.908,4.677,1.077,5.467,1.98,5.467,3.594,0,1.788-1.6,2.9-4.165,2.9-2.853,0-5.18-.961-7.784-3.215a.335.335,0,0,0-.235-.076.318.318,0,0,0-.22.113l-2.676,3.185a.317.317,0,0,0,.032.444,15.954,15.954,0,0,0,10.774,4.132c5.687,0,9.362-3.107,9.362-7.917.01-4.06-2.42-6.308-8.374-7.756Zm21.25-4.821a7.668,7.668,0,0,0-6.154,2.96v-2.239a.321.321,0,0,0-.32-.321H161.85a.32.32,0,0,0-.32.321v24.881a.32.32,0,0,0,.32.321h4.377a.321.321,0,0,0,.32-.321v-7.854A7.861,7.861,0,0,0,172.7,1411c4.58,0,9.217-3.526,9.217-10.266s-4.631-10.269-9.212-10.269Zm4.128,10.268c0,3.432-2.114,5.827-5.141,5.827-2.993,0-5.25-2.5-5.25-5.827s2.258-5.827,5.25-5.827,5.142,2.45,5.142,5.827Zm16.974-10.268a10.289,10.289,0,1,0,10.483,10.268,10.321,10.321,0,0,0-10.483-10.268Zm0,16.13a5.566,5.566,0,0,1-5.5-5.863c0-3.357,2.284-5.792,5.43-5.792a5.583,5.583,0,0,1,5.539,5.865,5.449,5.449,0,0,1-5.466,5.79Zm23.079-15.729h-4.816v-4.924a.32.32,0,0,0-.319-.321h-4.376a.321.321,0,0,0-.321.321v4.924h-2.1a.32.32,0,0,0-.319.321v3.761a.32.32,0,0,0,.319.321h2.1V1405c0,3.933,1.958,5.927,5.819,5.927a7.984,7.984,0,0,0,4.1-1.02.319.319,0,0,0,.162-.278v-3.582a.321.321,0,0,0-.464-.287,5.515,5.515,0,0,1-2.569.62c-1.4,0-2.031-.638-2.031-2.067v-9.045h4.816a.32.32,0,0,0,.319-.321v-3.761a.31.31,0,0,0-.314-.321Zm16.781.019v-.6c0-1.779.682-2.573,2.212-2.573a7.382,7.382,0,0,1,2.466.455.32.32,0,0,0,.421-.3v-3.688a.32.32,0,0,0-.227-.307,12.017,12.017,0,0,0-3.638-.523c-4.042,0-6.179,2.276-6.179,6.581v.926h-2.1a.322.322,0,0,0-.321.321v3.781a.322.322,0,0,0,.321.321h2.1v15.012a.32.32,0,0,0,.319.321h4.377a.321.321,0,0,0,.321-.321v-15.011h4.086l6.26,15.009c-.711,1.577-1.409,1.891-2.363,1.891a5.048,5.048,0,0,1-2.413-.685.329.329,0,0,0-.255-.024.324.324,0,0,0-.189.173l-1.483,3.254a.318.318,0,0,0,.138.414,9.215,9.215,0,0,0,4.674,1.2c3.232,0,5.018-1.505,6.593-5.555l7.593-19.62a.32.32,0,0,0-.3-.437H251.52a.322.322,0,0,0-.3.215l-4.667,13.332-5.112-13.341a.32.32,0,0,0-.3-.206h-7.477Zm-9.729-.019h-4.377a.321.321,0,0,0-.321.321v19.095a.321.321,0,0,0,.321.321h4.377a.322.322,0,0,0,.321-.321v-19.093a.32.32,0,0,0-.321-.321Zm-2.164-8.694a3.139,3.139,0,1,0,3.139,3.137,3.139,3.139,0,0,0-3.139-3.137ZM260.111,1397a3.088,3.088,0,1,1,3.1-3.1,3.068,3.068,0,0,1-3.1,3.1Zm.017-5.87a2.781,2.781,0,1,0,2.757,2.772,2.754,2.754,0,0,0-2.757-2.772Zm.683,3.089.871,1.22h-.735l-.784-1.119h-.674v1.119h-.615v-3.233h1.442c.751,0,1.245.384,1.245,1.031a.96.96,0,0,1-.747.982Zm-.521-1.459h-.8v1.023h.8c.4,0,.639-.2.639-.512,0-.333-.24-.511-.639-.511Z" transform="translate(-74.43 -1369.15)"/>
  </symbol>

  <symbol id="coca-cola-logo" viewBox="0 0 157.117 51.447">
    <g id="coca-cola" transform="translate(-0.001 0.001)">
    <path id="Контур_356" data-name="Контур 356" class="cls-1" d="M60.335,44.878C54.489,41.112,46.555,40.451,33.759,44,20.118,47.206,15.57,49.261,9.6,45.136,7.3,43.11,6.48,39.847,7.094,35.147c1.425-7.661,5.275-15.034,12.115-23.213,3.818-4.254,7.359-7.905,12.035-9.371,3.584-.92,3.249,1.9,2.815,2.3a3.468,3.468,0,0,0-1.82.46,4.715,4.715,0,0,0-1.877,3.206c-.1,2.486,2.47,1.969,3.58.6,1.2-1.538,2.964-4.484,1.574-7.23A4.086,4.086,0,0,0,32.675.019c-4.282-.245-8.269,1.8-11.95,4.053A52.214,52.214,0,0,0,2.6,25.891c-2.1,5.117-4,12.446-1.153,18.412,2.2,4.139,6.775,6.338,12.231,5.878A96.391,96.391,0,0,0,25.239,47.8c3.112-.748,19.041-6.224,24.275,3.307a7.069,7.069,0,0,1,6.09-3.451A20.043,20.043,0,0,1,68.1,51.446C66.844,49.564,63.3,46.79,60.335,44.878Z" transform="translate(0 0)"/>
    <path id="Контур_357" data-name="Контур 357" class="cls-1" d="M103.17,12.98c-2.979-1.955-8.967,1.782-13.764,8.192-4.386,5.75-6.28,12.433-4.219,15.523,3.066,3.636,8.757-1.653,11.178-4.484l.312-.331a35.289,35.289,0,0,0,4.148-5.937s1.131-1.869,1.185-1.955c.7-.129,1.541-.33,2.49-.6-.014.043-3.631,6.123-3.262,9.141.115.921.027,4.284,3.311,5.3,4.377.734,7.871-2.659,10.954-5.677,0,0,.525-.5.823-.79-.075.3-.173.7-.173.7-1.281,4.456.446,5.391,1.526,5.736,3.265.949,7.166-3.794,7.178-3.794-.1,1.494-.4,2.73,1.178,3.722,1.487.532,2.991-.279,4.135-1.041,4.119-2.9,7.438-7.447,10.119-11.375h-1.71c-.02,0-4.219,6.086-6.946,7.409,0,0-.5.255-.786.053-.354-.3-.214-.93,0-1.374.014-.029,10.528-18.264,10.528-18.264h-4.964s-.542.877-.586.935c-.033-.029-.113-.18-.168-.252-3.076-4.254-10.04,2.29-15.284,9.878a49.838,49.838,0,0,1-7.254,8.575s-3.948,3.619-5.635,1.019a5.019,5.019,0,0,1-.079-3.739c1.964-5.591,5.349-10.666,9.2-13.727,1.087-.847,2.269-1.093,2.855-.733a1.246,1.246,0,0,1,.3,1.71,2.767,2.767,0,0,0-2.2.848c-1.151,1.207-1.551,2.372-1.185,3.464,1.778,2.53,5.323-2.472,5.151-5.52a3.272,3.272,0,0,0-1.514-2.631,5.22,5.22,0,0,0-4.554.044,20.285,20.285,0,0,0-6.009,4.657c-1.993,2.2-5.411,4.643-6.48,4.369.349-.934,3.237-6.842.2-9.055ZM127.1,21.719a68.806,68.806,0,0,1,4.462-5.519c2.3-2.027,3.226-1.135,3.305-.5-2.151,3.852-4.689,8.265-7.076,12.232,0-.014-.747,1.135-.747,1.135a11,11,0,0,1-3.847,3.952,1.116,1.116,0,0,1-.925-.1.98.98,0,0,1-.418-.949C121.962,30.731,123.22,26.951,127.1,21.719ZM100.1,24.033s-.043.13-.065.172c-.006,0-2.164,3.521-2.164,3.521-1.3,1.739-2.93,3.925-4.963,4.974-.6.2-1.436.331-1.861-.2-.9-1.078-.436-2.573-.059-3.78l.134-.431a35.754,35.754,0,0,1,4.464-7.92.219.219,0,0,1,.084-.028.116.116,0,0,1,.014.043,7.165,7.165,0,0,0,4.479,3.378c.009,0,.018.014.018.043A.707.707,0,0,1,100.1,24.033Zm2.045-4.153c-.01.029-.962,2.213-.962,2.213-.138.115-.355.058-.6,0l-.427-.072a3.837,3.837,0,0,1-2.666-2.371c-.43-2.07,1.338-3.694,2.117-4.283a2.357,2.357,0,0,1,2.584-.259,2.714,2.714,0,0,1,.574,1.811A9.837,9.837,0,0,1,102.143,19.879ZM164.9,26.548a2.922,2.922,0,0,0-2.826-1.624c-3.932.36-7.779,3.593-9.8,8.236a23.642,23.642,0,0,0-2.017,7.488,20.72,20.72,0,0,1,6.548-4.987,13.624,13.624,0,0,1,2.349-5.677c.743-1.107,2.23-2.889,3.9-2.415,1.459.489.946,4.528-.993,8.437a27.106,27.106,0,0,1-5.852,7.733c-1.964,1.667-4.87,3.679-7.413,2.127-1.6-.948-2.418-2.932-2.246-5.491.765-7.258,4.069-13.439,8.8-20.482,4.875-6.54,10.249-13.252,17.489-16.832a4.886,4.886,0,0,1,4.026-.46s-6.8,3.737-10.036,10.651c-.824,1.754-1.97,4.125-.816,6.223a2.426,2.426,0,0,0,2.536,1.121c3.971-.92,6.536-4.628,8.633-8.02,1.215-2.573,2.3-5.131,2.3-7.977,0-.345-.018-.8-.047-1.15,1.9-1.006,5.787.776,5.787.776,3.04,1.007,9.513,5.966,11.7,6.914,1.065-1.236,2.815-3.1,3.8-4.039l-1.427-.877C197,4.83,194.59,3.508,192.213,2.2a14.151,14.151,0,0,0-12.025-1.106c-.879.316-1.682.589-1.682.589-1.659-1.811-4.38-1.639-6.385-1.15C164.911,2.6,158.216,7.647,151.039,16.4c-5.277,6.856-8.55,12.778-10.295,18.628-1.345,3.938-1.753,9.73,1.529,13.166,2.791,2.917,6.491,2.285,9.1,1.236,5.662-2.788,10.75-8.8,13.285-15.711.612-2.055,1.291-4.958.237-7.172Zm13.019-21.66c-.749,8.6-7.431,13.641-9.084,14.043-1,.2-2.711-.244-1.185-3.852a23.989,23.989,0,0,1,10.2-11.1A2.2,2.2,0,0,1,177.918,4.888ZM217.55,5.98c-3.594,2.041-7.32,3.363-11.829,2.9-1.25,1.409-2.467,2.861-3.588,4.355,6.33,1.61,13.04-1.969,16.782-5.375A26.416,26.416,0,0,0,224.9.1,31.455,31.455,0,0,1,217.55,5.98Zm-67.919,7.158h-4.714l-2.659,4.321h4.713Z" transform="translate(-67.787 -0.083)"/>
    <path id="Контур_358" data-name="Контур 358" class="cls-1" d="M525.1,47.693c-.507.345-1.219.08-.953-.711a41.108,41.108,0,0,1,3.3-6.113l7.344-13.026h-5.031c-.239.393-.75,1.295-.75,1.295A6.9,6.9,0,0,0,527.8,27.7c-1.229-.777-3.032-.409-4.276.295-5.409,3.163-9.355,9.411-12.467,14.284,0,0-3.276,5.417-5.094,5.819-1.42.115-1.273-1.8-1.212-2.243a36.515,36.515,0,0,1,3.108-9.055,69.54,69.54,0,0,0,8.3-6.784c5.88-5.62,10.837-11.988,11.561-13.411a11.464,11.464,0,0,1-1.71.187c-4.523,6.31-13.78,15.48-16.586,16.845,1.243-2.99,9.275-17.262,16.11-24.09l1.076-1.035c1.663-1.624,3.386-3.291,4.729-3.565.142-.014.324,0,.482.331a6.206,6.206,0,0,1-.951,3.263l-.757,1.553a17.561,17.561,0,0,0,1.776-.432c.817-1.537,1.722-3.263,1.388-5.317a1.526,1.526,0,0,0-1.215-1.279c-2.039-.388-4.261,1.121-6.049,2.343l-.072.043c-9.192,7.2-16.953,17.579-23.739,31.751a4.862,4.862,0,0,1-2.715.6,23.055,23.055,0,0,0,1.936-5.246,13.952,13.952,0,0,0,.141-1.739,3.658,3.658,0,0,0-1.405-3.205,4.857,4.857,0,0,0-3.988.143c-4.85,2.012-8.476,6.986-11.092,11.082a24.3,24.3,0,0,0-3.2,8.581c-.274,2.5.283,4.111,1.705,4.916,1.462.747,3.3-.029,4.025-.4,4.914-2.587,8.348-7.776,11.054-12.519a15.853,15.853,0,0,0,2.7-.345.068.068,0,0,1,.046.015c-.064.215-.642,1.94-.642,1.94-1.715,5.03-2.509,8.451-.888,10.478,2.315,2.86,6.148-.1,9.267-4.01-.669,4.685,1.759,5.419,3.61,5.06,2.126-.575,4.5-2.846,5.6-4.01-.353,1.365-.257,3.809,1.677,4.053,1.326.245,2.318-.476,3.466-1.094,4.118-2.242,9.048-9.715,10.328-11.875h-1.678C530.328,42.377,528.013,45.982,525.1,47.693Zm-36.965-.5a2.266,2.266,0,0,1-.356-1.271c-.05-2.818,2.982-7.865,5.122-10.615h0a8.324,8.324,0,0,0,4.154,3.758C495.537,42.457,490.314,49.722,488.135,47.193Zm9.784-9.644a4.261,4.261,0,0,1-3.2-3.133,4.306,4.306,0,0,1,2.346-4.441,2.352,2.352,0,0,1,2.109-.389,2.133,2.133,0,0,1,.761,1.9,11.528,11.528,0,0,1-.119,1.409l-.012.1A19.148,19.148,0,0,1,497.919,37.548Zm20.542,8.739s-.486.431-.486.431c-.691.618-1.4,1.279-2.26.948a.86.86,0,0,1-.444-.647,11.188,11.188,0,0,1,1.529-5l.2-.417c2.221-3.708,4.8-8.078,8.593-11.11a2.136,2.136,0,0,1,2.064-.546,1.072,1.072,0,0,1,.364.7,1.192,1.192,0,0,1-.121.388c-1.059,1.711-2.067,3.507-3.048,5.232A72.616,72.616,0,0,1,518.462,46.287Z" transform="translate(-387.185 -2.415)"/>
    </g>
  </symbol>

  <symbol id="redbull-bg-logo" viewBox="0 0 102.402 39.042">
    <path id="Контур_369" data-name="Контур 369" class="cls-1" d="M80.033,38.694l.324.059Zm.882.147c.126.019.251.035.377.052Zm.933.112.368.031Zm.5.04c.1.008.207.014.311.019Zm.462.027.368.014Zm.49.016q.411.011.823,0Zm.954,0q.192-.006.383-.015Zm.5-.021.33-.021Zm.445-.029c.12-.009.24-.019.359-.03Zm.974-.1c.092-.011.184-.023.275-.037ZM103.023,7.9q-.149-.08-.305-.146Zm-1-.36q-.192-.039-.386-.059ZM126,26.266l-.07.01ZM36.489,20.825a3.692,3.692,0,0,1-.984-1.487,5.271,5.271,0,0,1-.376-1.572,5.424,5.424,0,0,1,2.763-4.739,3.174,3.174,0,0,0,.988-.723.468.468,0,0,0-.15-.038A4.039,4.039,0,0,1,35.3,10.872a3.576,3.576,0,0,1-.7-2.213,5.1,5.1,0,0,1,.172-1.278c.547-.9,1.067-.656,1.386-.193A5.688,5.688,0,0,0,39.467,8.62a3,3,0,0,1,2.268,1.215,3.174,3.174,0,0,1,.558,1.822,2.645,2.645,0,0,1-.078.656c-.188.762-.99,1.449-2.108,2.324l-.634.526a3.61,3.61,0,0,0-1.439,2.483,1.567,1.567,0,0,0,.1.55,1.332,1.332,0,0,0,.1.2c.415.7,1.587,1.143,3.288.548a10.857,10.857,0,0,0,3.223-2.141,5.938,5.938,0,0,1,3.936-1.456,3.4,3.4,0,0,0,2.483-.979,5.847,5.847,0,0,1,4.445-2.1c.535-.041.564-.079.634-.174a5.731,5.731,0,0,1,2.273-1.886,7.133,7.133,0,0,1,1.441-.439l.492-.121.123-.043A9.77,9.77,0,0,0,63.533,8.08l.068-.043h0l.066-.042h0l.067-.039h0l.067-.038h0l.067-.035h0l.066-.035h0l.067-.032h0l.067-.031h0l.068-.028h0l.067-.028h0l.068-.025,0,0,.067-.024.071-.024h0l.066-.021h0l.068-.019h0l.067-.018h.005l.067-.016h.006l.066-.015h.005l.068-.014h.006l.067-.012h.006l.067-.011h.006l.066-.01h.007l.066-.008h.007l.065-.007h.007l.066-.006h.008l.066,0h.008l.065,0h.008l.065,0,.073,0h.233c.046,0,.092,0,.139.006l.064,0h.009l.062,0h.009l.062.006h.01l.062.006h.01l.062.008h.01l.061.008.01,0,.061.009.01,0,.061.009.011,0,.06.01.011,0,.059.011.011,0c.095.018.188.039.279.061l.057.014.012,0q.138.036.273.076l.053.017.013,0c.178.056.35.119.517.186l.047.019.061.025A19.49,19.49,0,0,1,82.817.022h0q.449-.02.9-.021.3,0,.595.009l.3.011h0L84.9.036A19.5,19.5,0,0,1,99.318,7.79a5.913,5.913,0,0,1,1.527-.322h.014l.05,0,.052,0h.351l.053,0h.012l.053,0h.012l.053,0h.01l.054,0h.01l.054.005h.01a3.9,3.9,0,0,1,.386.059l.057.012.008,0,.056.013h.008l.056.014.008,0,.057.015.006,0,.059.016.005,0,.057.018.007,0,.058.019h.005l.063.022.059.021,0,0,.058.023h0l.06.024,0,0c.1.043.2.091.305.146h0l.06.032h0l.06.034h0L103.2,8h0l.059.037h0l.06.038a11.546,11.546,0,0,0,2.26,1.282c.242.1.467.169.7.247l.125.043.5.121a9.143,9.143,0,0,1,.91.237,5.527,5.527,0,0,1,2.8,2.089c.07.094.1.133.639.174a5.864,5.864,0,0,1,4.448,2.1,3.374,3.374,0,0,0,2.475.979,5.921,5.921,0,0,1,3.937,1.456,10.848,10.848,0,0,0,3.225,2.141c1.7.6,2.878.155,3.283-.548a1.41,1.41,0,0,0,.179-.483,1.569,1.569,0,0,0,.024-.271,3.616,3.616,0,0,0-1.437-2.483l-.115-.1-.525-.43c-1.114-.875-1.917-1.562-2.11-2.324a2.652,2.652,0,0,1-.073-.656,3.228,3.228,0,0,1,.553-1.822,3.027,3.027,0,0,1,2.27-1.215A5.656,5.656,0,0,0,130.7,7.189c.324-.463.839-.711,1.384.193a5.026,5.026,0,0,1,.173,1.278,3.569,3.569,0,0,1-.7,2.213,4.046,4.046,0,0,1-3.43,1.393.458.458,0,0,0-.147.038,3.1,3.1,0,0,0,.987.723,5.43,5.43,0,0,1,2.766,4.739,5.119,5.119,0,0,1-.379,1.572,3.742,3.742,0,0,1-.823,1.336c-.049.051-.1.1-.156.151a5.638,5.638,0,0,1-4.373,1.2q-.352-.022-.7-.064a7.385,7.385,0,0,1-.8,3.138.856.856,0,0,0-.158.424c0,.029,0,.046,0,.058s.99.581.99.581l.157.08s.092.043.1.053.337-.019.337-.019l.064-.009H126c.61-.058,1.542-.357,1.938.75.1.294.167.549.226.776a1.77,1.77,0,0,0,.63,1.119s.2-.172.428-.374q.264-.233.517-.477c.282-.289.8-.142,1.181,0a9.779,9.779,0,0,1,1.186.663,1.252,1.252,0,0,1,.617.712,1.273,1.273,0,0,0,.689.66,1.993,1.993,0,0,1,.835,1.663,1.155,1.155,0,0,0,.051.357,1.713,1.713,0,0,0,.105.251c.48.967.095,1.453-.183,1.658a2.309,2.309,0,0,1-1.651.294l.005.159-.9-.121a3.71,3.71,0,0,0-1.088.1l-.065.017a1.872,1.872,0,0,1-1.957-.858c-.017-.029-.035-.057-.051-.087a3.015,3.015,0,0,0-.8-.925,3.178,3.178,0,0,1-1.184.121,2.827,2.827,0,0,1-1.54-.674c-.09-.075-.181-.157-.27-.247a3.024,3.024,0,0,0-2.513-.863l-.395.07a3.772,3.772,0,0,1-2.772-.238,7.5,7.5,0,0,0-.9-.429c-.853-.372-1.735-.755-1.856-1.562a2.3,2.3,0,0,0-.3-.617,5.149,5.149,0,0,1-.33-.6,1.753,1.753,0,0,1-.163-.658,2.879,2.879,0,0,1-.856.087q-.153-.008-.3-.03l-.37-.057a7.612,7.612,0,0,0-2.348-.169,12.8,12.8,0,0,1-4.153.28l-.511-.11a6.264,6.264,0,0,1-.784.682,9.247,9.247,0,0,1,1.3.045l.657.173a3.787,3.787,0,0,1,1.014-.029l.77.058.878.084c.423.085.872.268.8,1.1a1.532,1.532,0,0,1-.388.829,8.292,8.292,0,0,0-.678,1l-.033.065a1.156,1.156,0,0,1-1.215.731,2.781,2.781,0,0,0-.294.012c-.023.062-.087.178-.087.178a2.788,2.788,0,0,1-.9,1.263l-.128.092a1.993,1.993,0,0,1-2.008.371l-.338-.121a25.161,25.161,0,0,1-2.8-1.128l-.092-.051c-.608-.333-.743-.4-.964-.369l-.123.019a1.733,1.733,0,0,1-1.954-.825L99.5,31a19.527,19.527,0,0,1-12.219,7.715l-.022,0c-.17.031-.342.06-.514.087l-.064.009-.235.035c-.091.014-.183.026-.276.038l-.168.021-.264.029-.183.019c-.119.011-.239.021-.359.03l-.114.008c-.11.008-.219.015-.33.021l-.121.006c-.128.006-.255.011-.383.015l-.13,0q-.411.01-.823,0h-.123l-.368-.014-.15-.008c-.1-.006-.207-.011-.311-.019l-.132-.009-.368-.031-.181-.019-.24-.026-.134-.016q-.189-.023-.377-.052l-.152-.022-.269-.042-.138-.023c-.108-.019-.216-.038-.324-.059l-.233-.047-.119-.024c-.159-.035-.32-.069-.478-.107l-.042-.01-.249-.061-.128-.033c-.148-.038-.3-.079-.443-.121l-.053-.016a19.542,19.542,0,0,1-10.66-7.7l-.333.506a1.727,1.727,0,0,1-1.953.825l-.123-.019c-.22-.031-.36.036-.962.369l-.1.051a24.587,24.587,0,0,1-2.8,1.128l-.339.121a1.98,1.98,0,0,1-2-.371l-.133-.092a2.8,2.8,0,0,1-.9-1.263s-.058-.116-.086-.178a2.806,2.806,0,0,0-.294-.012,1.157,1.157,0,0,1-1.213-.731l-.031-.065a7.865,7.865,0,0,0-.682-1,1.511,1.511,0,0,1-.386-.829.872.872,0,0,1,.8-1.1l.879-.084.771-.058a3.758,3.758,0,0,1,1.01.029l.658-.173a9.208,9.208,0,0,1,1.3-.045,7.466,7.466,0,0,1-.781-.682c-.251.053-.512.11-.512.11a12.744,12.744,0,0,1-4.146-.28,7.629,7.629,0,0,0-2.352.169l-.376.057A2.871,2.871,0,0,1,51.38,26.9a2.762,2.762,0,0,1-.495,1.263,2.335,2.335,0,0,0-.308.617c-.113.808-1.006,1.191-1.856,1.562a7.592,7.592,0,0,0-.9.429,3.77,3.77,0,0,1-2.772.238l-.4-.07a3.026,3.026,0,0,0-2.512.863,2.856,2.856,0,0,1-2.994.8,3,3,0,0,0-.8.925,1.876,1.876,0,0,1-2.01.945l-.067-.017a3.637,3.637,0,0,0-1.078-.1l-.909.121.01-.159a2.328,2.328,0,0,1-1.658-.294c-.276-.205-.662-.692-.174-1.658a1.255,1.255,0,0,0,.152-.608,1.993,1.993,0,0,1,.83-1.663,1.25,1.25,0,0,0,.691-.66,1.24,1.24,0,0,1,.615-.712,9.832,9.832,0,0,1,1.184-.663c.378-.142.9-.289,1.185,0s.945.851.945.851c.6-.466.546-1,.858-1.895.391-1.106,1.327-.808,1.934-.75l.07.01s.328.014.337.019.109-.053.109-.053l.152-.08s.981-.576.99-.581a.2.2,0,0,0,0-.058.843.843,0,0,0-.156-.424,7.333,7.333,0,0,1-.8-3.138c-.157.019-.309.034-.459.046-2.375.191-3.787-.41-4.612-1.184Z" transform="translate(-32.228 0)"/>
  </symbol>

  <symbol id="redbull-bulls-logo" viewBox="0 0 100.893 26.171">
    <path id="Контур_370" data-name="Контур 370" class="cls-1" d="M43.675,34.632a7.247,7.247,0,0,0,.665,3.6s.639.906-.025,1.488l-1.322.768a1.259,1.259,0,0,1-.767.087s-.815-.2-1.087.158A10.758,10.758,0,0,1,40.606,42a3.989,3.989,0,0,1-1.6,1.826,1.529,1.529,0,0,0-1.035.871,1,1,0,0,1-.769.5s-.382.121-.636.973a4.572,4.572,0,0,0-.131.973,2.816,2.816,0,0,1,1.077.068,1.282,1.282,0,0,0,1.512-.51s.9-1.546,1.572-1.313a2.339,2.339,0,0,0,2.294-.532,3.807,3.807,0,0,1,3.147-1.132s2.076.42,2.723-.058c0,0,1.309-.684,1.8-.854a.98.98,0,0,0,.663-.834,6.372,6.372,0,0,1,.631-1.234l-.99-.011a4.813,4.813,0,0,1-2.42,1.962,5.139,5.139,0,0,1-2.505.062,4.988,4.988,0,0,0-4.51,1.734.621.621,0,0,1-.7.25,5.732,5.732,0,0,1,3.723-2.458,4.923,4.923,0,0,1,1.536-.065,5.67,5.67,0,0,0,5.044-3.291s-.173-2.892.59-3.577c0,0,.295-.09.236.469,0,0-.524,3.03.46,3.617a2.183,2.183,0,0,0,1.629.283,8.6,8.6,0,0,1,2.906-.16,12.254,12.254,0,0,0,3.726.256,2.548,2.548,0,0,1-.359-1.5s.247-.586.529-.209a4.713,4.713,0,0,0,2.473,2.846,2.686,2.686,0,0,1,1.591,2.64,8.283,8.283,0,0,1-2.392,1.043s-.8.253-1.059-.346c0,0-1.034-2.213-1.934-2.145l-1.69.137s-.577.148-.152.61a11.889,11.889,0,0,1,.815,1.229s.069.392.613.309c0,0,.754-.374,1.18,1.029a2.206,2.206,0,0,0,1.048.926,1.614,1.614,0,0,0,1.195-.119,28.71,28.71,0,0,0,3.278-1.388A1.587,1.587,0,0,1,66.8,44.7a1.087,1.087,0,0,0,1.182-.461l.865-1.339a1.455,1.455,0,0,0,.164-.744,1.073,1.073,0,0,0-.268-.827,1.735,1.735,0,0,1-.378-.6l-.617-1.449a2,2,0,0,0-.524-.546l-.823.06a13.7,13.7,0,0,0,.981,2.038,3.248,3.248,0,0,1,.533,1.4,1.153,1.153,0,0,1-.188.542s-.19.3-.266.452a2.087,2.087,0,0,1-.452.662,2.559,2.559,0,0,1-.435.216s-.152.042-.039-.231a4.4,4.4,0,0,0,.431-1.49.986.986,0,0,0-.293-.858A15.394,15.394,0,0,1,65.648,39.7a2.815,2.815,0,0,0-.431-.663.368.368,0,0,1,.192-.6,9.363,9.363,0,0,0,1.486-.439s.606-.183,1-1.445a8.934,8.934,0,0,0,.534-2.38A3.9,3.9,0,0,1,67.8,38.3s1.341.4,1.9,0c0,0,1.67-.244,1.992-.333,0,0,.42-.1.18.2a3.4,3.4,0,0,0-.546,1.186.887.887,0,0,1-.339.593s-.949.665-1.033,1.3c0,0-.2.613.216.466,0,0,.568-.263.769,0,0,0,.059.028-.16.274a1.918,1.918,0,0,0-.613,1.162,2.98,2.98,0,0,0,.307,1.015.645.645,0,0,0,.663.243.336.336,0,0,1,.3-.029,2.7,2.7,0,0,0,.725-.182s.795-.218,1.061-.312a5.7,5.7,0,0,1,1.511-.337,2.675,2.675,0,0,1,.738.047,2.661,2.661,0,0,0,2.108-.788s.642-.509.859-.015a4.175,4.175,0,0,0,4.031,1.521s-1.982-.815-2.5-1.926a4.62,4.62,0,0,0-1.107-2.252s-.317-.434-.011-.547c0,0,.177-.133.564.256a6.775,6.775,0,0,1,1.343,1.813s1.225,1.851,2.991,1.229a4.855,4.855,0,0,1-2.038-1.532,5.054,5.054,0,0,0-1.756-2.354,5.064,5.064,0,0,0-.684-2.369s-.322-1.424-.408-1.757a11.765,11.765,0,0,1-.338-1.6,4.523,4.523,0,0,0-.941-2.906,8.872,8.872,0,0,0-1.805-2.309s-.836-1.032-1.457-1.665a14.973,14.973,0,0,0-2.6-2.209,11.528,11.528,0,0,1-1.4-1.218s-3.144-2.263-5.415-.448a11.285,11.285,0,0,1-2.879,1.4s-2.692.313-3.84,2.182c0,0-.1.345-1.183.477a4.776,4.776,0,0,0-4.138,2.056,4.387,4.387,0,0,1-2.429.989,5.4,5.4,0,0,0-4.346,1.749s-4.324,3.772-6.9,1.326c0,0-1.336-1.265.191-3.555A16.224,16.224,0,0,1,42,26.746a2.054,2.054,0,0,0,.726-2.413,2.2,2.2,0,0,0-2.334-1.457s-2.521-.487-3.541-1.76c0,0-1.138,4.01,3.33,3.943,0,0,1.164.172.758,1.1A3.447,3.447,0,0,1,39.6,27.234a4.068,4.068,0,0,0-1.957,2.552s-1.361,3.436,1.96,4.762a8.357,8.357,0,0,0,4.07.083Zm-6.394,8.1a.813.813,0,0,1,.678-.181c.529.114.209.572.209.572a6.565,6.565,0,0,1-.913,1.076.813.813,0,0,1-1.114-.089c-.46-.454.139-.673.139-.673A5.6,5.6,0,0,0,37.28,42.729Zm-1.332,2.148a.36.36,0,0,1,.09.424,8.239,8.239,0,0,0-.47,1.8s-1.092.195-1.243-.344a.863.863,0,0,1,.149-.509,1.863,1.863,0,0,0,.233-.8s-.016-1.295.823-.952A1.531,1.531,0,0,1,35.948,44.876Zm38.473-2.74c-.192,0-.241-.075-.218-.287a1.325,1.325,0,0,1,.6-.842c.885-.529.992,0,.992,0,.162.944-.584,1.063-.584,1.063A5.292,5.292,0,0,1,74.421,42.136ZM77.09,37.92c.016-.443.054-1.428-.4-1.779-.166-.132-.823-.852-.823-.852-.1-.174-.177-.185-.177-.185-.135-.013-.31.3-.31.3-.468.9-.935.793-.935.793a.777.777,0,0,1,.106-.348q.339-.658.671-1.319c.068-.157.131-.365.131-.365.452-.7.877-.167.877-.167a17.425,17.425,0,0,0,1.2,1.579,1.075,1.075,0,0,1,.246.554c.235,1.655-.593,1.789-.593,1.789Zm-9.329-9.99a.723.723,0,0,1,.058-.745c.313-.48.606.044.606.044,1.082,1.509.283,3.767.283,3.767a5.41,5.41,0,0,0-.947-3.066Zm58.1,6.7a7.247,7.247,0,0,1-.665,3.6s-.639.906.025,1.488l1.322.768a1.258,1.258,0,0,0,.767.087s.815-.2,1.086.158A10.83,10.83,0,0,0,128.933,42a3.994,3.994,0,0,0,1.6,1.826,1.526,1.526,0,0,1,1.034.871,1,1,0,0,0,.769.5s.383.121.636.973a4.578,4.578,0,0,1,.131.973,2.819,2.819,0,0,0-1.078.068,1.282,1.282,0,0,1-1.512-.51s-.9-1.546-1.572-1.313a2.339,2.339,0,0,1-2.294-.532A3.806,3.806,0,0,0,123.5,43.73s-2.075.42-2.723-.058c0,0-1.309-.684-1.8-.854a.979.979,0,0,1-.663-.834,6.38,6.38,0,0,0-.632-1.234l.99-.011a4.812,4.812,0,0,0,2.42,1.962,5.141,5.141,0,0,0,2.505.062,4.988,4.988,0,0,1,4.51,1.734.621.621,0,0,0,.7.25,5.729,5.729,0,0,0-3.723-2.458,4.924,4.924,0,0,0-1.536-.065,5.671,5.671,0,0,1-5.044-3.291s.174-2.892-.589-3.577c0,0-.294-.09-.236.469,0,0,.524,3.03-.46,3.617a2.185,2.185,0,0,1-1.63.283,8.6,8.6,0,0,0-2.906-.16,12.26,12.26,0,0,1-3.727.256,2.547,2.547,0,0,0,.36-1.5s-.247-.586-.53-.209a4.713,4.713,0,0,1-2.474,2.846,2.686,2.686,0,0,0-1.591,2.64,8.3,8.3,0,0,0,2.393,1.043s.8.253,1.06-.346c0,0,1.033-2.213,1.934-2.145l1.691.137s.576.148.151.61a12.014,12.014,0,0,0-.815,1.229s-.068.392-.612.309c0,0-.754-.374-1.18,1.029a2.2,2.2,0,0,1-1.048.926,1.614,1.614,0,0,1-1.195-.119,28.682,28.682,0,0,1-3.277-1.388,1.588,1.588,0,0,0-1.083-.175,1.086,1.086,0,0,1-1.181-.461l-.865-1.339a1.449,1.449,0,0,1-.164-.744,1.071,1.071,0,0,1,.268-.827,1.729,1.729,0,0,0,.378-.6l.617-1.449a2,2,0,0,1,.524-.546l.824.06a13.7,13.7,0,0,1-.982,2.038,3.248,3.248,0,0,0-.533,1.4,1.157,1.157,0,0,0,.188.542s.19.3.267.452a2.072,2.072,0,0,0,.452.662,2.545,2.545,0,0,0,.435.216s.153.042.038-.231a4.429,4.429,0,0,1-.431-1.49.989.989,0,0,1,.293-.858,15.466,15.466,0,0,0,1.027-1.839,2.8,2.8,0,0,1,.43-.663.368.368,0,0,0-.192-.6,9.36,9.36,0,0,1-1.485-.439s-.606-.183-1-1.445a8.949,8.949,0,0,1-.534-2.38,3.894,3.894,0,0,0,.632,4.131s-1.341.4-1.9,0c0,0-1.67-.244-1.993-.333,0,0-.419-.1-.18.2a3.414,3.414,0,0,1,.547,1.186.883.883,0,0,0,.339.593s.949.665,1.032,1.3c0,0,.2.613-.216.466,0,0-.568-.263-.769,0,0,0-.059.028.16.274a1.916,1.916,0,0,1,.612,1.162,2.975,2.975,0,0,1-.307,1.015.644.644,0,0,1-.662.243.337.337,0,0,0-.3-.029,2.7,2.7,0,0,1-.725-.182s-.795-.218-1.06-.312a5.7,5.7,0,0,0-1.511-.337,2.675,2.675,0,0,0-.738.047,2.661,2.661,0,0,1-2.109-.788s-.642-.509-.859-.015a4.177,4.177,0,0,1-4.031,1.521s1.983-.815,2.5-1.926a4.613,4.613,0,0,1,1.106-2.252s.317-.434.011-.547c0,0-.177-.133-.564.256a6.787,6.787,0,0,0-1.342,1.813s-1.226,1.851-2.991,1.229a4.855,4.855,0,0,0,2.037-1.532,5.052,5.052,0,0,1,1.757-2.354,5.059,5.059,0,0,1,.684-2.369s.322-1.424.408-1.757a11.775,11.775,0,0,0,.338-1.6,4.522,4.522,0,0,1,.941-2.906,8.856,8.856,0,0,1,1.806-2.309s.835-1.032,1.456-1.665a14.986,14.986,0,0,1,2.6-2.209,11.519,11.519,0,0,0,1.4-1.218s3.144-2.263,5.416-.448a11.281,11.281,0,0,0,2.879,1.4s2.692.313,3.839,2.182c0,0,.1.345,1.183.477a4.777,4.777,0,0,1,4.139,2.056,4.387,4.387,0,0,0,2.43.989,5.4,5.4,0,0,1,4.345,1.749s4.325,3.772,6.9,1.326c0,0,1.335-1.265-.192-3.555a16.217,16.217,0,0,0-2.621-2.391,2.053,2.053,0,0,1-.726-2.413,2.2,2.2,0,0,1,2.334-1.457s2.521-.487,3.541-1.76c0,0,1.139,4.01-3.33,3.943,0,0-1.165.172-.758,1.1a3.447,3.447,0,0,0,1.337,1.079,4.069,4.069,0,0,1,1.957,2.552s1.362,3.436-1.961,4.762a8.347,8.347,0,0,1-4.068.083Zm6.395,8.1a.813.813,0,0,0-.678-.181c-.529.114-.209.572-.209.572a6.579,6.579,0,0,0,.913,1.076.812.812,0,0,0,1.114-.089c.46-.454-.14-.673-.14-.673A5.613,5.613,0,0,1,132.259,42.729Zm1.332,2.148a.362.362,0,0,0-.09.424,8.256,8.256,0,0,1,.47,1.8s1.092.195,1.242-.344a.864.864,0,0,0-.148-.509,1.863,1.863,0,0,1-.233-.8s.017-1.295-.822-.952A1.534,1.534,0,0,0,133.591,44.876Zm-38.473-2.74c.192,0,.242-.075.218-.287a1.326,1.326,0,0,0-.6-.842c-.885-.529-.993,0-.993,0-.161.944.585,1.063.585,1.063a5.283,5.283,0,0,0,.79.065ZM92.449,37.92c-.017-.443-.055-1.428.4-1.779.167-.132.823-.852.823-.852.1-.174.177-.185.177-.185.135-.013.311.3.311.3.467.9.935.793.935.793a.778.778,0,0,0-.107-.348q-.339-.658-.671-1.319-.074-.18-.131-.365c-.452-.7-.877-.167-.877-.167a17.435,17.435,0,0,1-1.2,1.579,1.075,1.075,0,0,0-.247.554c-.234,1.655.594,1.789.594,1.789Zm9.328-9.99a.723.723,0,0,0-.058-.745c-.313-.48-.606.044-.606.044-1.083,1.509-.283,3.767-.283,3.767a5.4,5.4,0,0,1,.947-3.066Z" transform="translate(-34.323 -21.116)"/>
  </symbol>
  
  <symbol id="redbull-title" viewBox="0 0 122.072 29.087">
    <path id="Контур_371" data-name="Контур 371" class="cls-1" d="M0,125.6v27.674H5.584V130.886H8.215s4.107-.185,4.107,3.554a3.5,3.5,0,0,1-3.646,3.645H7.337v6.37l5.585,8.824h6.553l-7.8-11.315a7.169,7.169,0,0,0,6.415-7.523c0-6.968-4.846-8.835-11.307-8.835Zm81.643,12.944a7.262,7.262,0,0,0,2.445-5.507c0-3.607-2.619-6.858-8.2-6.858h-9.34v27.095h11.5s8.246-.094,8.246-7.545C86.3,141.407,84.623,139.751,81.643,138.548Zm-4.5,10.014H72.136V130.908h2.676s3.637-.273,3.637,2.9a2.625,2.625,0,0,1-2.893,2.893H73.889v4.756h3.252A3.4,3.4,0,0,1,80.71,145C80.71,148.121,77.143,148.563,77.143,148.563Zm39.714-23.5h5.215v28.218h-5.215V125.06Zm-8.976,0h5.284v28.218h-5.284V125.06ZM87.874,136.748h5.353v9.46s.186,3.186,3.185,3.186,2.954-3.186,2.954-3.186v-9.416h5.4v9.74s.693,7.615-8.215,7.615-8.676-6.692-8.676-7.892ZM52.383,125.06v12.8a10.367,10.367,0,0,0-5.54-1.984c-2.953,0-7.937,2.077-7.937,8.63s4.246,9.047,7.892,9.047a7.8,7.8,0,0,0,5.677-2.4v2.131h5.26V125.06H52.383Zm-4.062,23.871c-.277,0-3.739.047-3.739-4.2a4.036,4.036,0,0,1,3.784-4.385s4.247.138,4.247,4.292S48.6,148.931,48.321,148.931Zm-19.938-13.06c8.953,0,8.584,8.723,8.584,8.723v1.384H24.83a3.788,3.788,0,0,0,3.923,3.692,4.226,4.226,0,0,0,3.415-2.169l4.291,2.122a8.724,8.724,0,0,1-7.66,4.2c-9.323,0-9.508-7.753-9.508-8.722s.139-9.23,9.092-9.23Zm-3.462,6.922h6.647s-.277-3.137-3.277-3.137S24.922,142.793,24.922,142.793Z" transform="translate(0 -125.06)"/>
  </symbol>

  <symbol id="arrow" viewBox="0 0 26.438 11.749">
    <path id="Контур_372" data-name="Контур 372" class="cls-1" d="M26.285,142.53l-5.875-5.355a.491.491,0,0,0-.536-.076.444.444,0,0,0-.291.444v3.427H.49a.471.471,0,0,0-.49.489V144.4a.471.471,0,0,0,.49.489H19.584v3.427a.461.461,0,0,0,.291.444.477.477,0,0,0,.536-.092l5.875-5.417a.5.5,0,0,0,.153-.367A.483.483,0,0,0,26.285,142.53Z" transform="translate(0 -137.052)"/>
  </symbol>

  <symbol id="star" viewBox="0 0 16.506 15.823">
    <path id="star" class="cls-1" d="M8.49,1.512,10.236,5.05a.834.834,0,0,0,.628.456l3.905.567A.834.834,0,0,1,15.232,7.5L12.406,10.25a.834.834,0,0,0-.24.738l.667,3.889a.834.834,0,0,1-1.21.879L8.131,13.921a.835.835,0,0,0-.776,0L3.862,15.757a.834.834,0,0,1-1.21-.879l.667-3.889a.834.834,0,0,0-.24-.738L.253,7.5A.834.834,0,0,1,.715,6.074l3.905-.567a.834.834,0,0,0,.628-.456L6.995,1.512A.834.834,0,0,1,8.49,1.512Z" transform="translate(0.51 -0.547)"/>
  </symbol>
</svg>