<svg xmlns="http://www.w3.org/2000/svg" width="16.506" height="15.823" viewBox="0 0 16.506 15.823">
  <defs>
    <style>
      .cls-1 {
        fill: #ffab1a;
        stroke: rgba(255,255,255,0);
      }
    </style>
  </defs>
  <path id="star" class="cls-1" d="M8.49,1.512,10.236,5.05a.834.834,0,0,0,.628.456l3.905.567A.834.834,0,0,1,15.232,7.5L12.406,10.25a.834.834,0,0,0-.24.738l.667,3.889a.834.834,0,0,1-1.21.879L8.131,13.921a.835.835,0,0,0-.776,0L3.862,15.757a.834.834,0,0,1-1.21-.879l.667-3.889a.834.834,0,0,0-.24-.738L.253,7.5A.834.834,0,0,1,.715,6.074l3.905-.567a.834.834,0,0,0,.628-.456L6.995,1.512A.834.834,0,0,1,8.49,1.512Z" transform="translate(0.51 -0.547)"/>
</svg>
